<svg version="1.1" xmlns="http://www.w3.org/2000/svg" xmlns:xlink="http://www.w3.org/1999/xlink" width="78.13907" height="77.74838" viewBox="0,0,78.13907,77.74838"><g transform="translate(-200.93046,-141.12581)"><g stroke="none" stroke-miterlimit="10"><path d="M200.93046,180c0,-21.46962 17.49203,-38.87419 39.06954,-38.87419c21.57751,0 39.06954,17.40457 39.06954,38.87419c0,21.46962 -17.49203,38.87419 -39.06954,38.87419c-21.57751,0 -39.06954,-17.40457 -39.06954,-38.87419z" fill-opacity="0.03137" fill="#000000" stroke-width="0"/><path d="M250.57566,203.61101c-0.08324,1.34382 -1.42705,2.01573 -1.42705,2.01573c-5.268,2.58188 -13.4808,4.34579 -19.37783,2.94134c-9.70345,-2.31099 -14.73614,-12.00134 -17.36701,-20.60618c-1.53323,-5.01478 -2.79325,-10.05469 -1.55981,-15.36364c0.91732,-3.94832 4.17112,-6.66545 6.34802,-9.89547c6.62001,-5.72302 12.34065,-11.63898 21.91548,-10.58937c2.73725,0.30006 5.25801,1.73207 7.68136,3.03972c3.71624,2.00529 7.81413,3.85066 10.51059,7.33921c7.29005,9.43153 5.66354,24.36478 -0.80801,33.47572c-1.69952,2.53072 -3.6078,4.45182 -5.05575,7.1121zM245.23006,201.91887c0.26039,-1.24147 1.56712,-1.76416 1.56712,-1.76416l0.26769,0.49724c1.59224,-2.81981 3.53673,-4.83965 5.31155,-7.5241c5.207,-7.24418 7.00047,-19.88742 1.02151,-27.50845c-2.31187,-2.94681 -5.86696,-4.37065 -9.00435,-6.07731c-1.82602,-0.99331 -3.66419,-2.26966 -5.73515,-2.44886c-7.89631,-0.68329 -12.19576,4.23176 -17.72424,8.92557c-1.6194,2.45869 -4.62077,4.81831 -5.23897,7.78994c-1.59741,7.67851 1.93797,17.76926 6.81954,23.72043c2.07134,2.52519 5.07628,5.40466 8.40479,6.17267c4.11938,0.95049 10.08417,-0.0743 14.31052,-1.78296z" fill="#000000" stroke-width="0.5"/><path d="M230.90838,203.75056c-3.32851,-0.76801 -6.35369,-3.65732 -8.42503,-6.18251c-4.88156,-5.95117 -8.43304,-16.09641 -6.83563,-23.77492c0.6182,-2.97163 3.63082,-5.3501 5.25023,-7.80879c5.52848,-4.69381 9.86934,-9.62416 17.76565,-8.94087c2.07096,0.1792 3.9221,1.45869 5.74812,2.452c3.13738,1.70666 6.71209,3.1443 9.02396,6.09111c5.97896,7.62104 4.18719,20.32781 -1.0198,27.57198c-1.77482,2.68445 -3.73503,4.71758 -5.32727,7.53739l-0.26769,-0.49725c0,0 -1.31104,0.52477 -1.57144,1.76623c-4.22635,1.70866 -10.22171,2.73611 -14.34109,1.78562z" fill="#ffd859" stroke-width="0.5"/><path d="M240.58122,179.26229c0,-1.38071 1.11929,-2.5 2.5,-2.5c1.38071,0 2.5,1.11929 2.5,2.5c0,1.38071 -1.11929,2.5 -2.5,2.5c-1.38071,0 -2.5,-1.11929 -2.5,-2.5z" fill="#000000" stroke-width="0.5"/><path d="M265.27622,179.56906c0,-1.38071 1.11929,-2.5 2.5,-2.5c1.38071,0 2.5,1.11929 2.5,2.5c0,1.38071 -1.11929,2.5 -2.5,2.5c-1.38071,0 -2.5,-1.11929 -2.5,-2.5z" fill="#000000" stroke-width="0.5"/></g></g></svg>